<?xml version="1.0" encoding="us-ascii" standalone="no"?><svg xmlns="http://www.w3.org/2000/svg" xmlns:xlink="http://www.w3.org/1999/xlink" contentStyleType="text/css" height="1245px" preserveAspectRatio="none" style="width:1597px;height:1245px;background:#FFFFFF;" version="1.1" viewBox="0 0 1597 1245" width="1597px" zoomAndPan="magnify"><defs/><g><!--cluster server.Accept\n???for??--><g id="cluster_server.Accept\n&#26381;&#21153;&#31471;for&#24490;&#29615;"><path d="M588.5,157 L700.5,157 A3.75,3.75 0 0 1 703,159.5 L710,195.5938 L835.5,195.5938 A2.5,2.5 0 0 1 838,198.0938 L838,353.5 A2.5,2.5 0 0 1 835.5,356 L588.5,356 A2.5,2.5 0 0 1 586,353.5 L586,159.5 A2.5,2.5 0 0 1 588.5,157 " fill="none" style="stroke:#000000;stroke-width:1.5;"/><line style="stroke:#000000;stroke-width:1.5;" x1="586" x2="710" y1="195.5938" y2="195.5938"/><text fill="#000000" font-family="sans-serif" font-size="14" font-weight="bold" lengthAdjust="spacing" textLength="111" x="590" y="171.9951">server.Accept</text><text fill="#000000" font-family="sans-serif" font-size="14" font-weight="bold" lengthAdjust="spacing" textLength="99" x="596" y="188.292">&#26381;&#21153;&#31471;for&#24490;&#29615;</text></g><!--cluster go??????--><g id="cluster_go&#21327;&#31243;&#22788;&#29702;&#36830;&#25509;"><path d="M440.5,380 L551.5,380 A3.75,3.75 0 0 1 554,382.5 L561,402.2969 L913.5,402.2969 A2.5,2.5 0 0 1 916,404.7969 L916,1003.5 A2.5,2.5 0 0 1 913.5,1006 L440.5,1006 A2.5,2.5 0 0 1 438,1003.5 L438,382.5 A2.5,2.5 0 0 1 440.5,380 " fill="none" style="stroke:#000000;stroke-width:1.5;"/><line style="stroke:#000000;stroke-width:1.5;" x1="438" x2="561" y1="402.2969" y2="402.2969"/><text fill="#000000" font-family="sans-serif" font-size="14" font-weight="bold" lengthAdjust="spacing" textLength="110" x="442" y="394.9951">go&#21327;&#31243;&#22788;&#29702;&#36830;&#25509;</text></g><!--cluster server.serveConn--><g id="cluster_server.serveConn"><path d="M504.5,423 L643.5,423 A3.75,3.75 0 0 1 646,425.5 L653,445.2969 L889.5,445.2969 A2.5,2.5 0 0 1 892,447.7969 L892,705.5 A2.5,2.5 0 0 1 889.5,708 L504.5,708 A2.5,2.5 0 0 1 502,705.5 L502,425.5 A2.5,2.5 0 0 1 504.5,423 " fill="none" style="stroke:#000000;stroke-width:1.5;"/><line style="stroke:#000000;stroke-width:1.5;" x1="502" x2="653" y1="445.2969" y2="445.2969"/><text fill="#000000" font-family="sans-serif" font-size="14" font-weight="bold" lengthAdjust="spacing" textLength="138" x="506" y="437.9951">server.serveConn</text></g><!--cluster server.serveCodec--><g id="cluster_server.serveCodec"><path d="M464.5,732 L611.5,732 A3.75,3.75 0 0 1 614,734.5 L621,754.2969 L889.5,754.2969 A2.5,2.5 0 0 1 892,756.7969 L892,979.5 A2.5,2.5 0 0 1 889.5,982 L464.5,982 A2.5,2.5 0 0 1 462,979.5 L462,734.5 A2.5,2.5 0 0 1 464.5,732 " fill="none" style="stroke:#000000;stroke-width:1.5;"/><line style="stroke:#000000;stroke-width:1.5;" x1="462" x2="621" y1="754.2969" y2="754.2969"/><text fill="#000000" font-family="sans-serif" font-size="14" font-weight="bold" lengthAdjust="spacing" textLength="146" x="466" y="746.9951">server.serveCodec</text></g><!--cluster for????Headers?Bodies--><g id="cluster_for&#24490;&#29615;&#22788;&#29702;Headers&#21644;Bodies"><path d="M488.5,775 L707.5,775 A3.75,3.75 0 0 1 710,777.5 L717,797.2969 L865.5,797.2969 A2.5,2.5 0 0 1 868,799.7969 L868,955.5 A2.5,2.5 0 0 1 865.5,958 L488.5,958 A2.5,2.5 0 0 1 486,955.5 L486,777.5 A2.5,2.5 0 0 1 488.5,775 " fill="none" style="stroke:#000000;stroke-width:1.5;"/><line style="stroke:#000000;stroke-width:1.5;" x1="486" x2="717" y1="797.2969" y2="797.2969"/><text fill="#000000" font-family="sans-serif" font-size="14" font-weight="bold" lengthAdjust="spacing" textLength="218" x="490" y="789.9951">for&#24490;&#29615;&#22788;&#29702;Headers&#21644;Bodies</text></g><!--cluster server.readRequest--><g id="cluster_server.readRequest"><path d="M956.5,775 L1114.5,775 A3.75,3.75 0 0 1 1117,777.5 L1124,797.2969 L1283.5,797.2969 A2.5,2.5 0 0 1 1286,799.7969 L1286,1114.5 A2.5,2.5 0 0 1 1283.5,1117 L956.5,1117 A2.5,2.5 0 0 1 954,1114.5 L954,777.5 A2.5,2.5 0 0 1 956.5,775 " fill="none" style="stroke:#000000;stroke-width:1.5;"/><line style="stroke:#000000;stroke-width:1.5;" x1="954" x2="1124" y1="797.2969" y2="797.2969"/><text fill="#000000" font-family="sans-serif" font-size="14" font-weight="bold" lengthAdjust="spacing" textLength="157" x="958" y="789.9951">server.readRequest</text></g><!--cluster server.handleRequest??--><g id="cluster_server.handleRequest&#21327;&#31243;"><path d="M426.5,1030 L632.5,1030 A3.75,3.75 0 0 1 635,1032.5 L642,1052.2969 L927.5,1052.2969 A2.5,2.5 0 0 1 930,1054.7969 L930,1235.5 A2.5,2.5 0 0 1 927.5,1238 L426.5,1238 A2.5,2.5 0 0 1 424,1235.5 L424,1032.5 A2.5,2.5 0 0 1 426.5,1030 " fill="none" style="stroke:#000000;stroke-width:1.5;"/><line style="stroke:#000000;stroke-width:1.5;" x1="424" x2="642" y1="1052.2969" y2="1052.2969"/><text fill="#000000" font-family="sans-serif" font-size="14" font-weight="bold" lengthAdjust="spacing" textLength="205" x="428" y="1044.9951">server.handleRequest&#21327;&#31243;</text></g><!--entity conn, err = socket.Accept()--><g id="elem_conn, err = socket.Accept()"><rect fill="#F1F1F1" height="36.2969" rx="2.5" ry="2.5" style="stroke:#181818;stroke-width:0.5;" width="219" x="602.5" y="208"/><text fill="#000000" font-family="sans-serif" font-size="14" lengthAdjust="spacing" textLength="199" x="612.5" y="230.9951">conn, err = socket.Accept()</text></g><!--entity go server.serveConn(conn)--><g id="elem_go server.serveConn(conn)"><rect fill="#F1F1F1" height="36.2969" rx="2.5" ry="2.5" style="stroke:#181818;stroke-width:0.5;" width="213" x="605.5" y="304"/><text fill="#000000" font-family="sans-serif" font-size="14" lengthAdjust="spacing" textLength="193" x="615.5" y="326.9951">go server.serveConn(conn)</text></g><!--entity json.NewDecoder(conn).Decode(&opt)--><g id="elem_json.NewDecoder(conn).Decode(&amp;opt)"><rect fill="#F1F1F1" height="36.2969" rx="2.5" ry="2.5" style="stroke:#181818;stroke-width:0.5;" width="297" x="563.5" y="458"/><text fill="#000000" font-family="sans-serif" font-size="14" lengthAdjust="spacing" textLength="277" x="573.5" y="480.9951">json.NewDecoder(conn).Decode(&amp;opt)</text></g><!--entity server.serveCodec(f(conn))--><g id="elem_server.serveCodec(f(conn))"><rect fill="#F1F1F1" height="36.2969" rx="2.5" ry="2.5" style="stroke:#181818;stroke-width:0.5;" width="215" x="589.5" y="656"/><text fill="#000000" font-family="sans-serif" font-size="14" lengthAdjust="spacing" textLength="195" x="599.5" y="678.9951">server.serveCodec(f(conn))</text></g><!--entity a--><g id="elem_a"><rect fill="#F1F1F1" height="36.2969" rx="2.5" ry="2.5" style="stroke:#181818;stroke-width:0.5;" width="358" x="518" y="558"/><text fill="#000000" font-family="sans-serif" font-size="14" lengthAdjust="spacing" textLength="338" x="528" y="580.9951">f := codec.NewCodecFuncMap[opt.CodecType]</text></g><!--entity req, err := server.readRequest(cc)--><g id="elem_req, err := server.readRequest(cc)"><rect fill="#F1F1F1" height="36.2969" rx="2.5" ry="2.5" style="stroke:#181818;stroke-width:0.5;" width="264" x="565" y="810"/><text fill="#000000" font-family="sans-serif" font-size="14" lengthAdjust="spacing" textLength="244" x="575" y="832.9951">req, err := server.readRequest(cc)</text></g><!--entity go server.handleRequest(cc, req, sending, wg)--><g id="elem_go server.handleRequest(cc, req, sending, wg)"><rect fill="#F1F1F1" height="36.2969" rx="2.5" ry="2.5" style="stroke:#181818;stroke-width:0.5;" width="349" x="502.5" y="906"/><text fill="#000000" font-family="sans-serif" font-size="14" lengthAdjust="spacing" textLength="329" x="512.5" y="928.9951">go server.handleRequest(cc, req, sending, wg)</text></g><!--entity h, err := server.readRequestHeader(cc)--><g id="elem_h, err := server.readRequestHeader(cc)"><rect fill="#F1F1F1" height="36.2969" rx="2.5" ry="2.5" style="stroke:#181818;stroke-width:0.5;" width="300" x="970" y="810"/><text fill="#000000" font-family="sans-serif" font-size="14" lengthAdjust="spacing" textLength="280" x="980" y="832.9951">h, err := server.readRequestHeader(cc)</text></g><!--entity req := &request{h: h}--><g id="elem_req := &amp;request{h: h}"><rect fill="#F1F1F1" height="36.2969" rx="2.5" ry="2.5" style="stroke:#181818;stroke-width:0.5;" width="179" x="1046.5" y="906"/><text fill="#000000" font-family="sans-serif" font-size="14" lengthAdjust="spacing" textLength="159" x="1056.5" y="928.9951">req := &amp;request{h: h}</text></g><!--entity cc.ReadBody(req.argv.Interface())--><g id="elem_cc.ReadBody(req.argv.Interface())"><rect fill="#F1F1F1" height="36.2969" rx="2.5" ry="2.5" style="stroke:#181818;stroke-width:0.5;" width="264" x="1004" y="1065"/><text fill="#000000" font-family="sans-serif" font-size="14" lengthAdjust="spacing" textLength="244" x="1014" y="1087.9951">cc.ReadBody(req.argv.Interface())</text></g><!--entity req.replyv = 'xxx'--><g id="elem_req.replyv = 'xxx'"><rect fill="#F1F1F1" height="36.2969" rx="2.5" ry="2.5" style="stroke:#181818;stroke-width:0.5;" width="145" x="604.5" y="1065"/><text fill="#000000" font-family="sans-serif" font-size="14" lengthAdjust="spacing" textLength="125" x="614.5" y="1087.9951">req.replyv = 'xxx'</text></g><!--entity server.sendResponse(cc, req.h, req.replyv.Interface(), sending)--><g id="elem_server.sendResponse(cc, req.h, req.replyv.Interface(), sending)"><rect fill="#F1F1F1" height="36.2969" rx="2.5" ry="2.5" style="stroke:#181818;stroke-width:0.5;" width="473" x="440.5" y="1186"/><text fill="#000000" font-family="sans-serif" font-size="14" lengthAdjust="spacing" textLength="453" x="450.5" y="1208.9951">server.sendResponse(cc, req.h, req.replyv.Interface(), sending)</text></g><!--entity ??--><g id="elem_&#25968;&#25454;"><ellipse cx="712" cy="73.5" fill="#F1F1F1" rx="8" ry="8" style="stroke:#181818;stroke-width:0.5;"/><text fill="#000000" font-family="sans-serif" font-size="14" lengthAdjust="spacing" textLength="28" x="698" y="103.4951">&#25968;&#25454;</text></g><g id="elem_GMN34"><path d="M856.5,213.5 L856.5,222 L821.828,226 L856.5,230 L856.5,238.6328 A0,0 0 0 0 856.5,238.6328 L963.5,238.6328 A0,0 0 0 0 963.5,238.6328 L963.5,223.5 L953.5,213.5 L856.5,213.5 A0,0 0 0 0 856.5,213.5 " fill="#FEFFDD" style="stroke:#181818;stroke-width:0.5;"/><path d="M953.5,213.5 L953.5,223.5 L963.5,223.5 L953.5,213.5 " fill="#FEFFDD" style="stroke:#181818;stroke-width:0.5;"/><text fill="#000000" font-family="sans-serif" font-size="13" lengthAdjust="spacing" textLength="86" x="862.5" y="230.5669">&#25509;&#21463;&#35831;&#27714; (tcp)</text></g><g id="elem_GMN37"><path d="M854.5,309.5 L854.5,318 L818.641,322 L854.5,326 L854.5,334.6328 A0,0 0 0 0 854.5,334.6328 L969.5,334.6328 A0,0 0 0 0 969.5,334.6328 L969.5,319.5 L959.5,309.5 L854.5,309.5 A0,0 0 0 0 854.5,309.5 " fill="#FEFFDD" style="stroke:#181818;stroke-width:0.5;"/><path d="M959.5,309.5 L959.5,319.5 L969.5,319.5 L959.5,309.5 " fill="#FEFFDD" style="stroke:#181818;stroke-width:0.5;"/><text fill="#000000" font-family="sans-serif" font-size="13" lengthAdjust="spacing" textLength="94" x="860.5" y="326.5669">go&#21327;&#31243;&#22788;&#29702;&#36830;&#25509;</text></g><g id="elem_GMN40"><path d="M932.5,456 L932.5,472 L860.738,476 L932.5,480 L932.5,496.2656 A0,0 0 0 0 932.5,496.2656 L1299.5,496.2656 A0,0 0 0 0 1299.5,496.2656 L1299.5,466 L1289.5,456 L932.5,456 A0,0 0 0 0 932.5,456 " fill="#FEFFDD" style="stroke:#181818;stroke-width:0.5;"/><path d="M1289.5,456 L1289.5,466 L1299.5,466 L1289.5,456 " fill="#FEFFDD" style="stroke:#181818;stroke-width:0.5;"/><text fill="#000000" font-family="sans-serif" font-size="13" lengthAdjust="spacing" textLength="346" x="938.5" y="473.0669">&#23581;&#35797;&#20174;&#25968;&#25454;&#22836;&#37096;&#35299;&#26512;&#20986;option&#65292;&#24471;&#21040;&#32534;&#30721;&#31867;&#22411;CodecType&#65292;</text><text fill="#000000" font-family="sans-serif" font-size="13" lengthAdjust="spacing" textLength="102" x="938.5" y="488.1997">&#21482;&#23454;&#29616;&#20102;gob&#32534;&#30721;</text></g><g id="elem_GMN43"><path d="M932.5,556 L932.5,572 L876.211,576 L932.5,580 L932.5,596.2656 A0,0 0 0 0 932.5,596.2656 L1273.5,596.2656 A0,0 0 0 0 1273.5,596.2656 L1273.5,566 L1263.5,556 L932.5,556 A0,0 0 0 0 932.5,556 " fill="#FEFFDD" style="stroke:#181818;stroke-width:0.5;"/><path d="M1263.5,556 L1263.5,566 L1273.5,566 L1263.5,556 " fill="#FEFFDD" style="stroke:#181818;stroke-width:0.5;"/><text fill="#000000" font-family="sans-serif" font-size="13" lengthAdjust="spacing" textLength="283" x="938.5" y="573.0669">&#33719;&#21462;&#21019;&#24314;&#23545;&#24212;Codec&#23545;&#35937;&#30340;&#20989;&#25968;, Codec&#31867;&#23553;&#35013;&#20102;</text><text fill="#000000" font-family="sans-serif" font-size="13" lengthAdjust="spacing" textLength="320" x="938.5" y="588.1997">&#24590;&#20040;&#20174;conn&#20013;read, write&#65292;&#35299;&#26512;header&#21644;body&#30340;&#26041;&#27861;</text></g><g id="elem_GMN46"><path d="M1305.5,815.5 L1305.5,824 L1270.44,828 L1305.5,832 L1305.5,840.6328 A0,0 0 0 0 1305.5,840.6328 L1398.5,840.6328 A0,0 0 0 0 1398.5,840.6328 L1398.5,825.5 L1388.5,815.5 L1305.5,815.5 A0,0 0 0 0 1305.5,815.5 " fill="#FEFFDD" style="stroke:#181818;stroke-width:0.5;"/><path d="M1388.5,815.5 L1388.5,825.5 L1398.5,825.5 L1388.5,815.5 " fill="#FEFFDD" style="stroke:#181818;stroke-width:0.5;"/><text fill="#000000" font-family="sans-serif" font-size="13" lengthAdjust="spacing" textLength="72" x="1311.5" y="832.5669">&#35299;&#26512;Header</text></g><g id="elem_GMN49"><path d="M1303.5,1070.5 L1303.5,1079 L1268.21,1083 L1303.5,1087 L1303.5,1095.6328 A0,0 0 0 0 1303.5,1095.6328 L1382.5,1095.6328 A0,0 0 0 0 1382.5,1095.6328 L1382.5,1080.5 L1372.5,1070.5 L1303.5,1070.5 A0,0 0 0 0 1303.5,1070.5 " fill="#FEFFDD" style="stroke:#181818;stroke-width:0.5;"/><path d="M1372.5,1070.5 L1372.5,1080.5 L1382.5,1080.5 L1372.5,1070.5 " fill="#FEFFDD" style="stroke:#181818;stroke-width:0.5;"/><text fill="#000000" font-family="sans-serif" font-size="13" lengthAdjust="spacing" textLength="58" x="1309.5" y="1087.5669">&#35299;&#26512;Body</text></g><g id="elem_GMN52"><path d="M1302,911.5 L1302,920 L1225.61,924 L1302,928 L1302,936.6328 A0,0 0 0 0 1302,936.6328 L1590,936.6328 A0,0 0 0 0 1590,936.6328 L1590,921.5 L1580,911.5 L1302,911.5 A0,0 0 0 0 1302,911.5 " fill="#FEFFDD" style="stroke:#181818;stroke-width:0.5;"/><path d="M1580,911.5 L1580,921.5 L1590,921.5 L1580,911.5 " fill="#FEFFDD" style="stroke:#181818;stroke-width:0.5;"/><text fill="#000000" font-family="sans-serif" font-size="13" lengthAdjust="spacing" textLength="267" x="1308" y="928.5669">&#35299;&#26512;&#20986;&#30340;header&#21644;body&#20449;&#24687;&#25918;&#22312;req&#32467;&#26500;&#20307;&#37324;</text></g><g id="elem_GMN55"><path d="M756,6 L756,69.5 L721.463,73.5 L756,77.5 L756,141.0625 A0,0 0 0 0 756,141.0625 L1178,141.0625 A0,0 0 0 0 1178,141.0625 L1178,16 L1168,6 L756,6 A0,0 0 0 0 756,6 " fill="#FEFFDD" style="stroke:#181818;stroke-width:0.5;"/><path d="M1168,6 L1168,16 L1178,16 L1168,6 " fill="#FEFFDD" style="stroke:#181818;stroke-width:0.5;"/><text fill="#000000" font-family="sans-serif" font-size="13" lengthAdjust="spacing" textLength="26" x="762" y="23.0669">&#26684;&#24335;</text><text fill="#000000" font-family="sans-serif" font-size="13" lengthAdjust="spacing" textLength="4" x="762" y="38.1997">&#160;</text><text fill="#000000" font-family="sans-serif" font-size="13" lengthAdjust="spacing" textLength="42" x="766" y="55.3325">Option</text><text fill="#000000" font-family="sans-serif" font-size="13" lengthAdjust="spacing" textLength="54" x="816" y="55.3325">Header1</text><text fill="#000000" font-family="sans-serif" font-size="13" lengthAdjust="spacing" textLength="40" x="878" y="55.3325">Body1</text><text fill="#000000" font-family="sans-serif" font-size="13" lengthAdjust="spacing" textLength="54" x="926" y="55.3325">Header2</text><text fill="#000000" font-family="sans-serif" font-size="13" lengthAdjust="spacing" textLength="40" x="988" y="55.3325">Body2</text><text fill="#000000" font-family="sans-serif" font-size="13" lengthAdjust="spacing" textLength="24" x="1036" y="55.3325">......</text><line style="stroke:#000000;stroke-width:0.5;" x1="762" x2="1064" y1="43.2656" y2="43.2656"/><line style="stroke:#000000;stroke-width:0.5;" x1="762" x2="1064" y1="58.3984" y2="58.3984"/><line style="stroke:#000000;stroke-width:0.5;" x1="762" x2="762" y1="43.2656" y2="58.3984"/><line style="stroke:#000000;stroke-width:0.5;" x1="812" x2="812" y1="43.2656" y2="58.3984"/><line style="stroke:#000000;stroke-width:0.5;" x1="874" x2="874" y1="43.2656" y2="58.3984"/><line style="stroke:#000000;stroke-width:0.5;" x1="922" x2="922" y1="43.2656" y2="58.3984"/><line style="stroke:#000000;stroke-width:0.5;" x1="984" x2="984" y1="43.2656" y2="58.3984"/><line style="stroke:#000000;stroke-width:0.5;" x1="1032" x2="1032" y1="43.2656" y2="58.3984"/><line style="stroke:#000000;stroke-width:0.5;" x1="1064" x2="1064" y1="43.2656" y2="58.3984"/><text fill="#000000" font-family="sans-serif" font-size="13" lengthAdjust="spacing" textLength="4" x="762" y="72.4653">&#160;</text><ellipse cx="767.5" cy="83.1641" fill="#000000" rx="2.5" ry="2.5" style="stroke:#000000;stroke-width:0.0;"/><text fill="#000000" font-family="sans-serif" font-size="13" lengthAdjust="spacing" textLength="344" x="774" y="87.5981">Option&#29992;json&#32534;&#30721;&#65292;&#21547;&#26377;MagicNumber&#21644;CodecType&#23383;&#27573;</text><ellipse cx="767.5" cy="98.2969" fill="#000000" rx="2.5" ry="2.5" style="stroke:#000000;stroke-width:0.0;"/><text fill="#000000" font-family="sans-serif" font-size="13" lengthAdjust="spacing" textLength="202" x="774" y="102.731">Header&#21644;Body&#29992;CodecType&#32534;&#30721;</text><ellipse cx="767.5" cy="113.4297" fill="#000000" rx="2.5" ry="2.5" style="stroke:#000000;stroke-width:0.0;"/><text fill="#000000" font-family="sans-serif" font-size="13" lengthAdjust="spacing" textLength="389" x="774" y="117.8638">&#20801;&#35768;&#22810;&#20010;Header&#21644;Body&#21487;&#20197;&#23454;&#29616;&#22312;&#19968;&#27425;TCP&#36830;&#25509;&#36827;&#34892;&#22810;&#20010;RPC&#35843;&#29992;</text><text fill="#000000" font-family="sans-serif" font-size="13" lengthAdjust="spacing" textLength="4" x="762" y="132.9966">&#160;</text></g><g id="elem_GMN58"><path d="M6,1040 L6,1125.6641 A0,0 0 0 0 6,1125.6641 L408,1125.6641 A0,0 0 0 0 408,1125.6641 L408,1050 L398,1040 L337.06,1040 L625.807,942.101 L329.06,1040 L6,1040 A0,0 0 0 0 6,1040 " fill="#FEFFDD" style="stroke:#181818;stroke-width:0.5;"/><path d="M398,1040 L398,1050 L408,1050 L398,1040 " fill="#FEFFDD" style="stroke:#181818;stroke-width:0.5;"/><ellipse cx="17.5" cy="1052.6328" fill="#000000" rx="2.5" ry="2.5" style="stroke:#000000;stroke-width:0.0;"/><text fill="#000000" font-family="sans-serif" font-size="13" lengthAdjust="spacing" textLength="352" x="24" y="1057.0669">sending&#20114;&#26021;&#38145;&#29992;&#26469;&#20445;&#35777;sendResponse&#26102;&#21457;&#36865;&#23436;&#25972;&#30340;&#21709;&#24212;&#12290;</text><text fill="#000000" font-family="sans-serif" font-size="13" lengthAdjust="spacing" textLength="278" x="12" y="1072.1997">&#38450;&#27490;&#19981;&#21516;handleRequest&#21327;&#31243;&#20132;&#38169;&#21709;&#24212;&#23458;&#25143;&#31471;&#12290;</text><ellipse cx="17.5" cy="1082.8984" fill="#000000" rx="2.5" ry="2.5" style="stroke:#000000;stroke-width:0.0;"/><text fill="#000000" font-family="sans-serif" font-size="13" lengthAdjust="spacing" textLength="369" x="24" y="1087.3325">wg WaitGroup&#29992;&#26469;&#31561;&#25152;&#26377;handleRequest&#21327;&#31243;&#36864;&#20986;&#21518;&#65292;&#25165;&#36864;&#20986;</text><text fill="#000000" font-family="sans-serif" font-size="13" lengthAdjust="spacing" textLength="180" x="12" y="1102.4653">serveCodec&#20989;&#25968;&#65292;&#20851;&#38381;&#36830;&#25509;&#12290;</text><text fill="#000000" font-family="sans-serif" font-size="13" lengthAdjust="spacing" textLength="4" x="12" y="1117.5981">&#160;</text></g><!--link ?? to conn, err = socket.Accept()--><g id="link_&#25968;&#25454;_conn, err = socket.Accept()"><path d="M712,82.59 C712,105.02 712,168.57 712,202.69 " fill="none" id="&#25968;&#25454;-to-conn, err = socket.Accept()" style="stroke:#181818;stroke-width:1.0;"/><polygon fill="#181818" points="712,207.91,716,198.91,712,202.91,708,198.91,712,207.91" style="stroke:#181818;stroke-width:1.0;"/></g><!--link conn, err = socket.Accept() to go server.serveConn(conn)--><!--link go server.serveConn(conn) to json.NewDecoder(conn).Decode(&opt)--><g id="link_go server.serveConn(conn)_json.NewDecoder(conn).Decode(&amp;opt)"><path d="M712,340.141 C712,367.737 712,422.011 712,452.623 " fill="none" id="go server.serveConn(conn)-to-json.NewDecoder(conn).Decode(&amp;opt)" style="stroke:#181818;stroke-width:1.0;"/><polygon fill="#181818" points="712,457.689,716,448.689,712,452.689,708,448.689,712,457.689" style="stroke:#181818;stroke-width:1.0;"/></g><!--link json.NewDecoder(conn).Decode(&opt) to a--><!--link a to server.serveCodec(f(conn))--><!--link server.serveCodec(f(conn)) to req, err := server.readRequest(cc)--><g id="link_server.serveCodec(f(conn))_req, err := server.readRequest(cc)"><path d="M697,692.141 C697,719.737 697,774.011 697,804.623 " fill="none" id="server.serveCodec(f(conn))-to-req, err := server.readRequest(cc)" style="stroke:#181818;stroke-width:1.0;"/><polygon fill="#181818" points="697,809.689,701,800.689,697,804.689,693,800.689,697,809.689" style="stroke:#181818;stroke-width:1.0;"/></g><!--link req, err := server.readRequest(cc) to go server.handleRequest(cc, req, sending, wg)--><!--link req, err := server.readRequest(cc) to h, err := server.readRequestHeader(cc)--><g id="link_req, err := server.readRequest(cc)_h, err := server.readRequestHeader(cc)"><path d="M829.188,828 C874.308,828 919.429,828 964.549,828 " fill="none" id="req, err := server.readRequest(cc)-to-h, err := server.readRequestHeader(cc)" style="stroke:#181818;stroke-width:1.0;"/><polygon fill="#181818" points="969.766,828,960.766,824,964.766,828,960.766,832,969.766,828" style="stroke:#181818;stroke-width:1.0;"/></g><!--link h, err := server.readRequestHeader(cc) to req := &request{h: h}--><!--link req := &request{h: h} to cc.ReadBody(req.argv.Interface())--><!--link go server.handleRequest(cc, req, sending, wg) to req.replyv = 'xxx'--><g id="link_go server.handleRequest(cc, req, sending, wg)_req.replyv = 'xxx'"><path d="M677,942.101 C677,970.649 677,1028.003 677,1059.689 " fill="none" id="go server.handleRequest(cc, req, sending, wg)-to-req.replyv = 'xxx'" style="stroke:#181818;stroke-width:1.0;"/><polygon fill="#181818" points="677,1064.92,681,1055.92,677,1059.92,673,1055.92,677,1064.92" style="stroke:#181818;stroke-width:1.0;"/></g><!--link req.replyv = 'xxx' to server.sendResponse(cc, req.h, req.replyv.Interface(), sending)--><!--SRC=[dLPTJzjM6BwUVyLHBjg0859tMQcJEgQjksXNeKgxO5mOvyJ9IktKDXHKa98M2gpvMWbaQsdKjA0XkdomTWCI2ZzcFiVErVx2tkDZykrWDJUsZz_dUP_tAw_ZedHVb34Aw5YRnrhefYJXkF6JGdVIv9UIzRuQKJLoTc1bgW7qM43mqx1aY8ey2nX9LPGnX3KDtK2wAjt7XeiFZWHwRMKLkIwSomH0WmmFbik247Tbo2f9PwtzvsHtnSeziy-BDBFd-hqmwMNXRtky_QohIkWEVlGDbjGmrhYd47yANb7ZXYkm1zRD7SPICCAXWyqZwFeDn2Wbvii1V3kdIBV5-1Iu23a7znRZU3g0H1s93iNoa6307BN3kR1fLO0dvHOM8IATl4XzhOPZMEz0zCZJy4DU7L3fEj80F8aVpc7T24fIHrIUrOgAIdWMjp5ZoA7LiHAEAV8OUYIF152BPjczSqFjg6o_WFv-YWwHoyDkY-wEas6kQDpoSVGwYYxtMKbIQ18u86cBGR0CYPey7_fUCR0M4IKS7Ebkn47HyzRibytOD1oVNPo7ERYwiB1mDI1yCQYh50X6ZwkAZYyI6Oho2uTtoccbcEkYMpMQhg3nyQ_Gr92ncnQ6lWNyL3GM3cDb6dWyHt9Q48QyHEDXfkBo4GCnFeowD8c2sAtHUoA1VSXBL-Jb8m0qFemyykPZE5WkVJX0unhJwsy2GBDFm-va3XmKde01vztOIyUdksdyPAPTevxnuP9w3pqQu_E62jGgge6H5fEZ1b8ZbompM4CaMx2hH_Jm2GeQKdn402B4AFg8XcowGUlDcyZF4YErrtProsna-1y4sVtOVBfl__6E5dDahGusCLNvxpH5pWfalMQTRbjlajPXWnIVjvOJl1L8ze1KYbQcPjQVoUeCj_CK9WfsveXajydwAzAea-e9gUSTEhYr3qlMonMozWdqZ27dbFch9Urtgq0kq4J6F5a7lImOyxZCsXQwGOiPJ0WN7dNw5nRS33GRiD7j4_fXopjFVjS6P-Sdtcm-zWGdOXRUD1vBgLKQYAihJlEyH9DLcZyZE_k0iHgRjBXYVjfihgKydRXBGQ1lJibfLX2Mq0zEmT4Iub5UWpicyrhhv4ltX5r3pWyj2SAe2xJo-wpfUFrPs-JUqvsDsw8Sa-xCFPXnnBOQXvGBjF8tO6zTnC68WQ9buVRHA2AhIRjoJ7PVciS7NTOaMpKRUxpt873pE47_BDsRkCj7mpv_PPTI73PvTyAkFGLseJSTCwfXg0zwHi_FPmi8Sv_D-WkwlTVC9u6Vljupps6eafr_BRJm3yd-samaIIL5jpwo5jzCGzl_ctWYD7_xYvRVciTfaaiD-5umwxlD_E_Sd5JUqlKZ-Afck54GWNuKOyPtcZeNvvwjyWRTI43E1n0r4mde6vBBG67eHfe_2ktbnuUELMtrGxDGvYbaZbe9-ny0]--></g></svg>